<svg width="61" height="61" viewBox="0 0 61 61" fill="none" xmlns="http://www.w3.org/2000/svg">
<path d="M60.528 33.669C60.6682 32.2722 59.6397 31.0146 58.2425 30.8744C57.3057 30.7804 44.8383 30.0424 36.7119 29.9966C44.6832 28.3915 56.7008 25.3004 57.6107 25.0229C58.9669 24.6139 59.7183 23.1982 59.3091 21.8424C58.8999 20.4866 57.4838 19.7352 56.1277 20.1443C55.2844 20.3964 44.9657 23.9786 37.4829 26.9475C44.131 22.3877 52.8549 15.8396 53.5521 15.2843C54.6353 14.3989 54.7978 12.7798 53.9121 11.6969C53.0264 10.614 51.4069 10.4515 50.3237 11.3368C49.59 11.9366 40.3114 20.1766 34.5251 25.8971C39.0208 19.1332 45.3754 8.38722 45.8282 7.55082C46.4987 6.30336 46.0276 4.76499 44.7797 4.09465C43.5319 3.42431 41.9932 3.89521 41.3227 5.14266C40.9065 5.93463 36.016 15.9938 32.8333 23.4186C34.3045 15.4694 35.8688 4.51523 35.958 3.62632C36.0981 2.22945 35.0696 0.97185 33.6724 0.831648C32.2751 0.691446 31.0173 1.71963 30.8771 3.11649C30.7847 4.03716 30.0887 15.9282 30.0115 24.0493C28.3881 16.0942 25.3765 4.39235 25.0973 3.49854C24.6881 2.14274 23.272 1.39138 21.9158 1.80044C20.5597 2.20949 19.8082 3.62519 20.2175 4.98098C20.4824 5.85733 24.3405 16.9547 27.3693 24.4897C22.8143 17.7796 15.853 8.51931 15.2816 7.82064C14.396 6.7377 12.7764 6.5752 11.6933 7.46057C10.6101 8.34595 10.4476 9.96505 11.3333 11.048C11.9047 11.7467 19.4267 20.2135 25.068 26.0064C18.2815 21.5576 8.41024 15.725 7.60217 15.3072C6.35436 14.6369 4.81561 15.1078 4.14516 16.3552C3.47471 17.6027 3.94581 19.1411 5.19363 19.8114C6.01439 20.2625 17.0878 25.6225 24.5813 28.7794C16.6062 27.2256 4.54084 25.5179 3.61993 25.4255C2.22269 25.2853 0.964819 26.3135 0.824654 27.7103C0.68449 29.1072 1.713 30.3648 3.11024 30.505C3.9994 30.5942 14.952 31.2443 23.007 31.3631C15.1102 33.0238 4.4249 35.7836 3.58169 36.0357C2.22556 36.4448 1.47408 37.8605 1.88331 39.2163C2.29255 40.572 3.70865 41.3234 5.06477 40.9144C5.97468 40.6369 17.7719 36.5457 25.2975 33.4689C18.5574 37.9873 8.56608 45.4985 7.83232 46.0982C6.74914 46.9836 6.58668 48.6027 7.47235 49.6857C8.35801 50.7686 9.97754 50.9311 11.0607 50.0457C11.7421 49.4888 19.9994 42.1564 25.792 36.5327C21.3932 43.2903 15.8106 52.7349 15.396 53.511C14.7255 54.7585 15.1966 56.2969 16.4444 56.9672C17.6923 57.6375 19.231 57.1666 19.9015 55.9192C20.3368 55.0971 25.6546 44.1348 28.8104 36.6592C27.2566 44.6322 25.5221 56.8038 25.4281 57.7404C25.2879 59.1372 26.3164 60.3948 27.7137 60.535C29.1109 60.6752 30.3688 59.6471 30.509 58.2502C30.5997 57.3454 31.2686 45.8846 31.3759 37.7825C33.0343 45.709 35.8636 56.6711 36.1142 57.53C36.5234 58.8858 37.9395 59.6371 39.2957 59.2281C40.6518 58.819 41.4033 57.4033 40.994 56.0475C40.7291 55.1712 36.9345 44.2405 33.9041 36.7214C38.4574 43.4473 45.5187 52.8299 46.0885 53.5445C46.9742 54.6274 48.5937 54.7899 49.6769 53.9045C50.7601 53.0191 50.9225 51.4 50.0369 50.3171C49.4512 49.601 41.4244 40.5705 35.7196 34.7712C42.5045 39.2358 52.7695 45.3003 53.576 45.734C54.8238 46.4043 56.3625 45.9334 57.033 44.686C57.7034 43.4385 57.2323 41.9001 55.9845 41.2298C55.1923 40.8136 45.2366 35.9827 37.8114 32.7845C45.7595 34.2875 56.8293 35.8472 57.7185 35.9364C59.1459 36.0957 60.3879 35.0659 60.528 33.669Z" fill="#F4EBE8"/>
</svg>
