<svg width="61" height="50" viewBox="0 0 61 50" fill="none" xmlns="http://www.w3.org/2000/svg">
<path d="M58.5868 6.81252C54.3832 0.754105 42.8261 4.74517 32.7842 15.7342C31.6652 16.9608 30.6237 18.2056 29.6318 19.4927C28.8322 18.099 27.9532 16.713 27.0071 15.3485C18.5153 3.12192 7.60455 -2.36933 2.61973 3.07557C-2.35202 8.52135 0.485881 22.8429 8.97854 35.0565C14.1291 42.4664 20.1671 47.3981 25.2381 48.9209C25.9684 49.1908 26.7719 49.3486 27.6354 49.3932C28.4971 49.4638 29.3144 49.4143 30.0741 49.2438C35.3026 48.4087 41.9436 44.3106 48.0326 37.6642C58.0615 26.6742 62.7913 12.858 58.5868 6.81252Z" fill="#F4EBE8"/>
</svg>
